# xmcd
#
# Track frame offsets: 
#        150
#        18820
#        21216
#        29256
#        37997
#        45412
#        51865
#        57373
#        62170
#        68774
#        75968
#        81181
#        84972
#        91607
#        96343
#        101662
#        118863
#        128731
#        139502
#        158728
#        167672
#        177870
#        193174
#        203919
#        219593
#        226888
#        239392
#        246485
#        251216
#        254422
#        264235
#        277472
#
# Disc length: 3930 seconds
#
# Revision: 0
# Processed by: cddbd v1.5.1PL0 Copyright (c) Steve Scherf et al.
# Submitted via: ExactAudioCopy v0.95a5
#
DISCID=b70f5820
DTITLE=Ming+FS - Heightened Security
DYEAR=2004
DGENRE=Hip-Hop
TTITLE0=Mos Def - Time (Ming+FS Remix)
TTITLE1=Radiohead - Karma Police (Ming+FS Remix)
TTITLE2=Oochie Wallawalla Inst. Feat. Method Man and Redman
TTITLE3=Oochie Wallawalla (Ming+FS Remix)
TTITLE4=White Label - Black Moon Acapella
TTITLE5=White Label - Hands Up Acapella
TTITLE6=Fugazi - Floating Boy Demo - feat. Clipse
TTITLE7=Beastie Boys - Sure Shot (Ming+FS Remix)
TTITLE8=Beastie Boys - Sure Shot (Ming+FS Remix)
TTITLE9=Ming+FS - Frequency Technique
TTITLE10=The Clash - The Guns of Brixton
TTITLE11=Ming+FS - Frequency Technique Part II
TTITLE12=I Know What You Want Inst. - Feat. Outkast, Freeway, Jay-Z
TTITLE13=Make It Clap Inst. - Jay-Z - Dirt Off Your Shoulder Acapella
TTITLE14=Beastie Boys - High Plains Drifter
TTITLE15=Cutty Ranks - Limb by Limb (Ming+FS Remix)
TTITLE16=Here Come the Boys Inst. - Ming+FS Medley
TTITLE17=Damn Inst. - Feat. Lyrics Born
TTITLE18=Get Busy Inst. - Feat. Cutty Ranks and Clipse
TTITLE19=Clipse - Get Down Remix
TTITLE20=G-Unit - My Buddy
TTITLE21=Nas - Get Down
TTITLE22=How You Want That Inst - Jay-Z - 99 Problems
TTITLE23=Ming+FS - Hit Man
TTITLE24=Optical - To Shape The Future Remix feat. Mos Def
TTITLE25=Kitachi - Raise It Up - Missy Elliot - Get Your Freak On Acap
TTITLE25=ella
TTITLE26=Gang Star - It's a Set Up
TTITLE27=Ming+FS - Draw feat. Napoleon Solo
TTITLE28=Ming+FS - Break Bread With The Enemy
TTITLE29=Ming+FS - White Label
TTITLE30=Ming+FS - "Rock Higher" (Remix)
TTITLE31=Ming+FS - "Back to One" (Remix)
EXTD=
EXTT0=
EXTT1=
EXTT2=
EXTT3=
EXTT4=
EXTT5=
EXTT6=
EXTT7=
EXTT8=
EXTT9=
EXTT10=
EXTT11=
EXTT12=
EXTT13=
EXTT14=
EXTT15=
EXTT16=
EXTT17=
EXTT18=
EXTT19=
EXTT20=
EXTT21=
EXTT22=
EXTT23=
EXTT24=
EXTT25=
EXTT26=
EXTT27=
EXTT28=
EXTT29=
EXTT30=
EXTT31=
PLAYORDER=
